<svg width="32" height="32" viewBox="0 0 32 32" fill="none" xmlns="http://www.w3.org/2000/svg">
<path d="M16.0001 2.66667C8.64008 2.66667 2.66675 8.64001 2.66675 16C2.66675 23.36 8.64008 29.3333 16.0001 29.3333C23.3601 29.3333 29.3334 23.36 29.3334 16C29.3334 8.64001 23.3601 2.66667 16.0001 2.66667ZM16.0001 26.6667C10.1201 26.6667 5.33341 21.88 5.33341 16C5.33341 10.12 10.1201 5.33334 16.0001 5.33334C21.8801 5.33334 26.6667 10.12 26.6667 16C26.6667 21.88 21.8801 26.6667 16.0001 26.6667ZM22.1201 10.1067L13.3334 18.8933L9.88008 15.4533L8.00008 17.3333L13.3334 22.6667L24.0001 12L22.1201 10.1067Z" fill="var(--checkmark-circle-color, #374451)"/>
</svg>
