<svg width="32" height="32" viewBox="0 0 32 32" fill="none" xmlns="http://www.w3.org/2000/svg">
<path d="M15.9998 2.66667C8.63984 2.66667 2.6665 8.64001 2.6665 16C2.6665 23.36 8.63984 29.3333 15.9998 29.3333C23.3598 29.3333 29.3332 23.36 29.3332 16C29.3332 8.64001 23.3598 2.66667 15.9998 2.66667ZM15.9998 26.6667C10.1198 26.6667 5.33317 21.88 5.33317 16C5.33317 10.12 10.1198 5.33334 15.9998 5.33334C21.8798 5.33334 26.6665 10.12 26.6665 16C26.6665 21.88 21.8798 26.6667 15.9998 26.6667ZM22.1198 10.1067L13.3332 18.8933L9.87984 15.4533L7.99984 17.3333L13.3332 22.6667L23.9998 12L22.1198 10.1067Z" fill="#2BA6DC"/>
</svg>
