<svg width="0" height="0" class="hidden">
  <symbol fill="none" xmlns="http://www.w3.org/2000/svg" id="handshake">
    <path d="M28.5179 46.3283C28.0979 46.7483 27.3513 46.8183 26.8613 46.3283C26.4413 45.9083 26.3713 45.1617 26.8613 44.6717L34.7713 36.7617L31.4813 33.4717L23.5713 41.3817C23.1279 41.8483 22.3813 41.825 21.9146 41.3817C21.4246 40.8917 21.4946 40.145 21.9146 39.725L29.8246 31.815L26.5346 28.525L18.6246 36.435C18.2046 36.855 17.4579 36.925 16.9679 36.435C16.5246 35.9917 16.5246 35.245 16.9679 34.7783L24.8779 26.8683L21.5646 23.5783L13.6546 31.4883C13.2346 31.9083 12.4879 31.9783 11.9979 31.4883C11.5546 31.0217 11.5546 30.2983 11.9979 29.8317L22.2179 19.6117L26.5813 23.9517C28.7979 26.1683 32.6246 26.145 34.8413 23.9517C37.1279 21.665 37.1279 17.9783 34.8413 15.6917L30.5013 11.3517L31.1546 10.6983C32.9746 8.87834 35.9379 8.87834 37.7579 10.6983L47.6513 20.5917C49.4713 22.4117 49.4713 25.375 47.6513 27.195L28.5179 46.3283ZM50.9413 30.5083C54.5813 26.8683 54.5813 20.965 50.9413 17.3017L41.0479 7.40834C37.4079 3.76834 31.5046 3.76834 27.8413 7.40834L27.1879 8.06168L26.5346 7.40834C22.8946 3.76834 16.9913 3.76834 13.3279 7.40834L5.06794 15.6683C1.75461 18.9817 1.45128 24.1383 4.13461 27.7783L7.51794 24.395C6.60794 22.645 6.91128 20.4283 8.38128 18.9583L16.6413 10.6983C18.4613 8.87834 21.4246 8.87834 23.2446 10.6983L31.5513 19.005C31.9713 19.425 32.0413 20.1717 31.5513 20.6617C31.0613 21.1517 30.3146 21.0817 29.8946 20.6617L22.2179 13.0083L8.68461 26.5183C6.39794 28.7817 6.39794 32.4917 8.68461 34.7783C9.59461 35.6883 10.7613 36.2483 11.9979 36.4117C12.1613 37.625 12.6979 38.7917 13.6313 39.725C14.5646 40.6583 15.7313 41.195 16.9446 41.3583C17.1079 42.5717 17.6446 43.7383 18.5779 44.6717C19.5113 45.605 20.6779 46.1417 21.8913 46.305C22.0546 47.565 22.6146 48.7083 23.5246 49.6183C24.6213 50.715 26.0913 51.3217 27.6546 51.3217C29.2179 51.3217 30.6879 50.715 31.7846 49.6183L50.9413 30.5083Z" fill="currentColor"></path>
  </symbol>
</svg>
