<svg width="0" height="0" class="hidden">
  <symbol fill="none" xmlns="http://www.w3.org/2000/svg" id="handyman">
    <path d="M50.6071 43.5604L38.2405 31.1937H35.9304L30.0038 37.1204V39.4304L42.3704 51.7971C43.2804 52.7071 44.7504 52.7071 45.6604 51.7971L50.6071 46.8504C51.5171 45.9637 51.5171 44.4704 50.6071 43.5604ZM44.0038 46.8737L34.1104 36.9804L35.7671 35.3237L45.6604 45.2171L44.0038 46.8737Z" fill="currentColor"></path>
    <path d="M40.5038 24.9404L43.7938 21.6504L48.7404 26.5971C51.4705 23.8671 51.4705 19.4337 48.7404 16.7037L40.4804 8.44374L37.1904 11.7337V5.15374L35.5571 3.49707L27.2971 11.7571L28.9538 13.4137H35.5571L32.2671 16.7037L34.7404 19.1771L27.9971 25.9204L18.3604 16.2837V12.9704L11.3138 5.92374L4.71045 12.5271L11.7804 19.5971H15.0704L24.7071 29.2337L22.7238 31.2171H17.7771L5.41045 43.5837C4.50045 44.4937 4.50045 45.9637 5.41045 46.8737L10.3571 51.8204C11.2671 52.7304 12.7371 52.7304 13.6471 51.8204L26.0138 39.4537V34.5071L38.0304 22.4904L40.5038 24.9404ZM21.8838 36.9571L11.9904 46.8504L10.3338 45.1937L20.2271 35.3004L21.8838 36.9571Z" fill="currentColor"></path>
  </symbol>
</svg>
