<svg width="16" height="16" viewBox="0 0 16 16" fill="none" xmlns="http://www.w3.org/2000/svg">
<path d="M15.9554 4.70136C15.9169 3.84948 15.7793 3.26661 15.5841 2.75741C15.3792 2.23219 15.1072 1.78383 14.6623 1.34187C14.2174 0.89992 13.7725 0.621297 13.2476 0.419536C12.7387 0.220977 12.1562 0.0864692 11.3048 0.0480384C10.4503 0.00960768 10.1782 0 8.00817 0C5.83493 0 5.56288 0.00960768 4.71151 0.0480384C3.86014 0.0864692 3.27762 0.224179 2.76872 0.419536C2.24061 0.6245 1.79252 0.896717 1.35083 1.34187C0.909146 1.78703 0.63069 2.23219 0.429049 2.75741C0.23381 3.26661 0.0961829 3.84948 0.0577752 4.70136C0.0193675 5.55645 0.00976562 5.82866 0.00976562 8C0.00976562 10.1745 0.0193675 10.4468 0.0577752 11.2986C0.0961829 12.1505 0.23381 12.7334 0.429049 13.2426C0.63389 13.7678 0.905945 14.2162 1.35083 14.6581C1.79252 15.1033 2.24061 15.3787 2.76552 15.5805C3.27442 15.779 3.85694 15.9135 4.70831 15.952C5.56288 15.9904 5.83493 16 8.00496 16C10.1782 16 10.4503 15.9904 11.3016 15.952C12.153 15.9135 12.7355 15.7758 13.2444 15.5805C13.7693 15.3755 14.2174 15.1033 14.6591 14.6581C15.1008 14.213 15.3792 13.7678 15.5809 13.2426C15.7793 12.7334 15.9137 12.1505 15.9522 11.2986C15.9906 10.4436 16.0002 10.1713 16.0002 8C16.0002 5.82866 15.9938 5.55324 15.9554 4.70136ZM14.5183 11.2346C14.4831 12.016 14.3518 12.442 14.243 12.7206C14.099 13.0921 13.9229 13.3611 13.6413 13.6429C13.3596 13.9247 13.094 14.0945 12.7195 14.245C12.4379 14.3539 12.0122 14.4852 11.2344 14.5204C10.3926 14.5588 10.1398 14.5685 8.00176 14.5685C5.86374 14.5685 5.61089 14.5588 4.76912 14.5204C3.98816 14.4852 3.56248 14.3539 3.28402 14.245C2.91275 14.1009 2.64389 13.9247 2.36224 13.6429C2.08058 13.3611 1.91095 13.0953 1.76052 12.7206C1.65169 12.4388 1.52047 12.0128 1.48526 11.2346C1.44685 10.3923 1.43725 10.1393 1.43725 8C1.43725 5.86069 1.44685 5.60769 1.48526 4.76541C1.52047 3.98399 1.65169 3.55805 1.76052 3.27942C1.90454 2.90793 2.08058 2.63891 2.36224 2.35709C2.64389 2.07526 2.90955 1.90552 3.28402 1.755C3.56568 1.64612 3.99136 1.51481 4.76912 1.47958C5.61089 1.44115 5.86374 1.43155 8.00176 1.43155C10.1398 1.43155 10.3926 1.44115 11.2344 1.47958C12.0154 1.51481 12.4411 1.64612 12.7195 1.755C13.0908 1.89912 13.3596 2.07526 13.6413 2.35709C13.9229 2.63891 14.0926 2.90472 14.243 3.27942C14.3518 3.56125 14.4831 3.98719 14.5183 4.76541C14.5567 5.60769 14.5663 5.86069 14.5663 8C14.5663 10.1393 14.5535 10.3923 14.5183 11.2346Z" fill="#374451"/>
<path d="M8.00171 3.8877C5.72926 3.8877 3.89209 5.72917 3.89209 7.99978C3.89209 10.2736 5.73246 12.1119 8.00171 12.1119C10.271 12.1119 12.1113 10.2672 12.1113 7.99978C12.1113 5.72597 10.2742 3.8877 8.00171 3.8877ZM8.00171 10.6675C6.52942 10.6675 5.33558 9.47296 5.33558 7.99978C5.33558 6.52661 6.52942 5.33205 8.00171 5.33205C9.47401 5.33205 10.6678 6.52661 10.6678 7.99978C10.6678 9.47296 9.47401 10.6675 8.00171 10.6675Z" fill="#374451"/>
<path d="M12.2712 4.68863C12.8015 4.68863 13.2314 4.25848 13.2314 3.72786C13.2314 3.19724 12.8015 2.76709 12.2712 2.76709C11.7409 2.76709 11.311 3.19724 11.311 3.72786C11.311 4.25848 11.7409 4.68863 12.2712 4.68863Z" fill="#374451"/>
<path d="M0 8C0 10.1745 0.00960192 10.4468 0.0480096 11.2986C0.0864173 12.1505 0.224045 12.7334 0.419284 13.2426C0.624125 13.7678 0.896179 14.2162 1.34107 14.6581C1.78276 15.1001 2.23085 15.3787 2.75575 15.5805C3.26465 15.779 3.84717 15.9135 4.69854 15.952C5.55311 15.9904 5.82517 16 7.9952 16C10.1684 16 10.4405 15.9904 11.2919 15.952C12.1432 15.9135 12.7257 15.7758 13.2346 15.5805C13.7596 15.3755 14.2076 15.1033 14.6493 14.6581C15.091 14.2162 15.3695 13.7678 15.5711 13.2426C15.7696 12.7334 15.904 12.1505 15.9424 11.2986C15.9808 10.4436 15.9904 10.1713 15.9904 8C15.9904 5.82546 15.9808 5.55324 15.9424 4.70136C15.904 3.84948 15.7664 3.26661 15.5711 2.75741C15.3663 2.23219 15.0942 1.78383 14.6493 1.34187C14.2108 0.896717 13.7628 0.621297 13.2378 0.419536C12.7289 0.220977 12.1464 0.0864692 11.2951 0.0480384C10.4405 0.00960768 10.1684 0 7.9984 0C5.82516 0 5.55311 0.00960768 4.70174 0.0480384C3.85037 0.0864692 3.26785 0.224179 2.75895 0.419536C2.23405 0.6245 1.78596 0.896717 1.34427 1.34187C0.902581 1.78703 0.624125 2.23219 0.422484 2.75741C0.224045 3.26661 0.0864173 3.84948 0.0480096 4.70136C0.00960192 5.55324 0 5.82546 0 8ZM1.44349 8C1.44349 5.86389 1.45309 5.60769 1.4915 4.76541C1.52671 3.98399 1.65793 3.55805 1.76675 3.27942C1.91078 2.90793 2.08682 2.63891 2.36847 2.35709C2.65013 2.07526 2.91578 1.90552 3.29026 1.755C3.57191 1.64612 3.9976 1.51481 4.77536 1.47958C5.61712 1.44115 5.86997 1.43155 8.008 1.43155C10.146 1.43155 10.3989 1.44115 11.2406 1.47958C12.0216 1.51481 12.4473 1.64612 12.7257 1.755C13.097 1.89912 13.3659 2.07526 13.6475 2.35709C13.9292 2.63891 14.0988 2.90472 14.2493 3.27942C14.3581 3.56125 14.4893 3.98719 14.5245 4.76541C14.5629 5.60769 14.5725 5.86069 14.5725 8C14.5725 10.1393 14.5629 10.3923 14.5245 11.2346C14.4893 12.016 14.3581 12.442 14.2493 12.7206C14.1052 13.0921 13.9292 13.3611 13.6475 13.6429C13.3659 13.9247 13.1002 14.0945 12.7257 14.245C12.4441 14.3539 12.0184 14.4852 11.2406 14.5204C10.3989 14.5588 10.146 14.5685 8.008 14.5685C5.86997 14.5685 5.61712 14.5588 4.77536 14.5204C3.9944 14.4852 3.56871 14.3539 3.29026 14.245C2.91898 14.1009 2.65013 13.9247 2.36847 13.6429C2.08682 13.3611 1.91718 13.0953 1.76675 12.7206C1.65793 12.4388 1.52671 12.0128 1.4915 11.2346C1.44989 10.3923 1.44349 10.1361 1.44349 8Z" fill="#374451"/>
</svg>
