<svg width="32" height="32" viewBox="0 0 32 32" fill="none" xmlns="http://www.w3.org/2000/svg">
<path d="M16.0001 2.6665C10.8401 2.6665 6.66675 6.83984 6.66675 11.9998C6.66675 18.9998 16.0001 29.3332 16.0001 29.3332C16.0001 29.3332 25.3334 18.9998 25.3334 11.9998C25.3334 6.83984 21.1601 2.6665 16.0001 2.6665ZM9.33341 11.9998C9.33341 8.31984 12.3201 5.33317 16.0001 5.33317C19.6801 5.33317 22.6667 8.31984 22.6667 11.9998C22.6667 15.8398 18.8267 21.5865 16.0001 25.1732C13.2267 21.6132 9.33341 15.7998 9.33341 11.9998Z" fill="#374451"/>
<path d="M16.0001 15.3332C17.841 15.3332 19.3334 13.8408 19.3334 11.9998C19.3334 10.1589 17.841 8.66651 16.0001 8.66651C14.1591 8.66651 12.6667 10.1589 12.6667 11.9998C12.6667 13.8408 14.1591 15.3332 16.0001 15.3332Z" fill="#374451"/>
</svg>
