<svg width="188" height="37" viewBox="0 0 188 37" fill="none" xmlns="http://www.w3.org/2000/svg">
<path d="M18.16 36L11.152 23.28H9.184V36H0.976V2.304H14.752C17.408 2.304 19.664 2.768 21.52 3.696C23.408 4.624 24.816 5.904 25.744 7.536C26.672 9.136 27.136 10.928 27.136 12.912C27.136 15.152 26.496 17.152 25.216 18.912C23.968 20.672 22.112 21.92 19.648 22.656L27.424 36H18.16ZM9.184 17.472H14.272C15.776 17.472 16.896 17.104 17.632 16.368C18.4 15.632 18.784 14.592 18.784 13.248C18.784 11.968 18.4 10.96 17.632 10.224C16.896 9.488 15.776 9.12 14.272 9.12H9.184V17.472ZM57.5365 22.176C57.5365 22.944 57.4885 23.744 57.3925 24.576H38.8165C38.9445 26.24 39.4725 27.52 40.4005 28.416C41.3605 29.28 42.5285 29.712 43.9045 29.712C45.9525 29.712 47.3765 28.848 48.1765 27.12H56.9125C56.4645 28.88 55.6485 30.464 54.4645 31.872C53.3125 33.28 51.8565 34.384 50.0965 35.184C48.3365 35.984 46.3685 36.384 44.1925 36.384C41.5685 36.384 39.2325 35.824 37.1845 34.704C35.1365 33.584 33.5365 31.984 32.3845 29.904C31.2325 27.824 30.6565 25.392 30.6565 22.608C30.6565 19.824 31.2165 17.392 32.3365 15.312C33.4885 13.232 35.0885 11.632 37.1365 10.512C39.1845 9.392 41.5365 8.832 44.1925 8.832C46.7845 8.832 49.0885 9.376 51.1045 10.464C53.1205 11.552 54.6885 13.104 55.8085 15.12C56.9605 17.136 57.5365 19.488 57.5365 22.176ZM49.1365 20.016C49.1365 18.608 48.6565 17.488 47.6965 16.656C46.7365 15.824 45.5365 15.408 44.0965 15.408C42.7205 15.408 41.5525 15.808 40.5925 16.608C39.6645 17.408 39.0885 18.544 38.8645 20.016H49.1365ZM60.2346 22.56C60.2346 19.808 60.7466 17.392 61.7706 15.312C62.8266 13.232 64.2506 11.632 66.0426 10.512C67.8346 9.392 69.8346 8.832 72.0426 8.832C73.9306 8.832 75.5786 9.216 76.9866 9.984C78.4266 10.752 79.5306 11.76 80.2986 13.008V9.216H88.5066V36H80.2986V32.208C79.4986 33.456 78.3786 34.464 76.9386 35.232C75.5306 36 73.8826 36.384 71.9946 36.384C69.8186 36.384 67.8346 35.824 66.0426 34.704C64.2506 33.552 62.8266 31.936 61.7706 29.856C60.7466 27.744 60.2346 25.312 60.2346 22.56ZM80.2986 22.608C80.2986 20.56 79.7226 18.944 78.5706 17.76C77.4506 16.576 76.0746 15.984 74.4426 15.984C72.8106 15.984 71.4186 16.576 70.2666 17.76C69.1466 18.912 68.5866 20.512 68.5866 22.56C68.5866 24.608 69.1466 26.24 70.2666 27.456C71.4186 28.64 72.8106 29.232 74.4426 29.232C76.0746 29.232 77.4506 28.64 78.5706 27.456C79.7226 26.272 80.2986 24.656 80.2986 22.608ZM102.653 0.48V36H94.4448V0.48H102.653ZM123.529 29.04V36H119.353C116.377 36 114.057 35.28 112.393 33.84C110.729 32.368 109.897 29.984 109.897 26.688V16.032H106.633V9.216H109.897V2.688H118.105V9.216H123.481V16.032H118.105V26.784C118.105 27.584 118.297 28.16 118.681 28.512C119.065 28.864 119.705 29.04 120.601 29.04H123.529ZM140.293 36.384C137.669 36.384 135.301 35.824 133.189 34.704C131.109 33.584 129.461 31.984 128.245 29.904C127.061 27.824 126.469 25.392 126.469 22.608C126.469 19.856 127.077 17.44 128.293 15.36C129.509 13.248 131.173 11.632 133.285 10.512C135.397 9.392 137.765 8.832 140.389 8.832C143.013 8.832 145.381 9.392 147.493 10.512C149.605 11.632 151.269 13.248 152.485 15.36C153.701 17.44 154.309 19.856 154.309 22.608C154.309 25.36 153.685 27.792 152.437 29.904C151.221 31.984 149.541 33.584 147.397 34.704C145.285 35.824 142.917 36.384 140.293 36.384ZM140.293 29.28C141.861 29.28 143.189 28.704 144.277 27.552C145.397 26.4 145.957 24.752 145.957 22.608C145.957 20.464 145.413 18.816 144.325 17.664C143.269 16.512 141.957 15.936 140.389 15.936C138.789 15.936 137.461 16.512 136.405 17.664C135.349 18.784 134.821 20.432 134.821 22.608C134.821 24.752 135.333 26.4 136.357 27.552C137.413 28.704 138.725 29.28 140.293 29.28ZM166.872 13.68C167.832 12.208 169.032 11.056 170.472 10.224C171.912 9.36 173.512 8.928 175.272 8.928V17.616H173.016C170.968 17.616 169.432 18.064 168.408 18.96C167.384 19.824 166.872 21.36 166.872 23.568V36H158.664V9.216H166.872V13.68Z" fill="#F8F9F9"/>
<path d="M183.035 36.384C181.595 36.384 180.411 35.968 179.483 35.136C178.587 34.272 178.139 33.216 178.139 31.968C178.139 30.688 178.587 29.616 179.483 28.752C180.411 27.888 181.595 27.456 183.035 27.456C184.443 27.456 185.595 27.888 186.491 28.752C187.419 29.616 187.883 30.688 187.883 31.968C187.883 33.216 187.419 34.272 186.491 35.136C185.595 35.968 184.443 36.384 183.035 36.384Z" fill="#2BA6DC"/>
</svg>
