<svg width="98" height="98" viewBox="0 0 98 98" fill="none" xmlns="http://www.w3.org/2000/svg">
<path d="M52.6341 45.325C45.3657 42.9158 41.8541 41.405 41.8541 37.5666C41.8541 33.4016 46.3866 31.8908 49.2449 31.8908C54.5941 31.8908 56.5541 35.9333 57.0032 37.3625L63.4549 34.6266C62.8424 32.7891 60.1066 26.7866 53.0832 25.48V20.4166H44.9166V25.5616C34.7899 27.8483 34.7491 37.24 34.7491 37.6483C34.7491 46.9175 43.9366 49.5308 48.4282 51.1641C54.8799 53.4508 57.7383 55.5333 57.7383 59.4533C57.7383 64.0675 53.4507 66.0275 49.6532 66.0275C42.2216 66.0275 40.0983 58.3916 39.8532 57.4933L33.0749 60.2291C35.6474 69.1716 42.3849 71.5808 44.9166 72.3158V77.5833H53.0832V72.52C54.7166 72.1525 64.9249 70.1108 64.9249 59.3716C64.9249 53.6958 62.4341 48.7141 52.6341 45.325ZM12.2499 85.75H4.08325V61.25H28.5833V69.4166H18.4566C25.0308 79.2575 36.2599 85.75 48.9999 85.75C69.2941 85.75 85.7499 69.2941 85.7499 49H93.9166C93.9166 73.8266 73.8266 93.9166 48.9999 93.9166C33.8099 93.9166 20.3758 86.3625 12.2499 74.8475V85.75ZM4.08325 49C4.08325 24.1733 24.1733 4.08331 48.9999 4.08331C64.1899 4.08331 77.6241 11.6375 85.7499 23.1525V12.25H93.9166V36.75H69.4166V28.5833H79.5432C72.9691 18.7425 61.7399 12.25 48.9999 12.25C28.7058 12.25 12.2499 28.7058 12.2499 49H4.08325Z" fill="#374451"/>
</svg>
