<svg width="0" height="0" class="hidden">
  <symbol fill="none" xmlns="http://www.w3.org/2000/svg" id="money-icon--services">
    <path d="M30.0766 25.9C25.9233 24.5233 23.9166 23.66 23.9166 21.4666C23.9166 19.0866 26.5066 18.2233 28.1399 18.2233C31.1966 18.2233 32.3166 20.5333 32.5733 21.35L36.2599 19.7866C35.9099 18.7366 34.3466 15.3066 30.3333 14.56V11.6666H25.6666V14.6066C19.8799 15.9133 19.8566 21.28 19.8566 21.5133C19.8566 26.81 25.1066 28.3033 27.6733 29.2366C31.3599 30.5433 32.9933 31.7333 32.9933 33.9733C32.9933 36.61 30.5433 37.73 28.3733 37.73C24.1266 37.73 22.9133 33.3666 22.7733 32.8533L18.8999 34.4166C20.3699 39.5266 24.2199 40.9033 25.6666 41.3233V44.3333H30.3333V41.44C31.2666 41.23 37.0999 40.0633 37.0999 33.9266C37.0999 30.6833 35.6766 27.8366 30.0766 25.9ZM6.99992 49H2.33325V35H16.3333V39.6666H10.5466C14.3033 45.29 20.7199 49 27.9999 49C39.5966 49 48.9999 39.5966 48.9999 28H53.6666C53.6666 42.1866 42.1866 53.6666 27.9999 53.6666C19.3199 53.6666 11.6433 49.35 6.99992 42.77V49ZM2.33325 28C2.33325 13.8133 13.8133 2.33331 27.9999 2.33331C36.6799 2.33331 44.3566 6.64998 48.9999 13.23V6.99998H53.6666V21H39.6666V16.3333H45.4533C41.6966 10.71 35.2799 6.99998 27.9999 6.99998C16.4033 6.99998 6.99992 16.4033 6.99992 28H2.33325Z" fill="currentColor"></path>
  </symbol>
</svg>