<svg width="18" height="18" viewBox="0 0 18 18" fill="none" xmlns="http://www.w3.org/2000/svg">
<path d="M7.455 3.36378C6.2325 9.01879 10.2675 12.6713 13.2 13.7138C12.1575 14.5313 10.86 14.9963 9.5025 14.9963C6.195 14.9963 3.5025 12.3038 3.5025 8.99629C3.5025 6.40878 5.1525 4.19628 7.455 3.36378ZM9.495 1.50378C5.3025 1.50378 2.0025 4.90128 2.0025 8.99629C2.0025 13.1363 5.3625 16.4963 9.5025 16.4963C12.285 16.4963 14.7 14.9813 15.9975 12.7313C10.365 12.5438 6.93 6.40878 9.7575 1.50378C9.6675 1.50378 9.585 1.50378 9.495 1.50378Z" fill="#374451"/>
</svg>
