<svg width="19" height="18" viewBox="0 0 19 18" fill="none" xmlns="http://www.w3.org/2000/svg">
<path d="M7.70494 3.36391C6.48244 9.01891 10.5174 12.6714 13.4499 13.7139C12.4074 14.5314 11.1099 14.9964 9.75244 14.9964C6.44494 14.9964 3.75244 12.3039 3.75244 8.99641C3.75244 6.40891 5.40244 4.19641 7.70494 3.36391ZM9.74494 1.50391C5.55244 1.50391 2.25244 4.90141 2.25244 8.99641C2.25244 13.1364 5.61244 16.4964 9.75244 16.4964C12.5349 16.4964 14.9499 14.9814 16.2474 12.7314C10.6149 12.5439 7.17994 6.40891 10.0074 1.50391C9.91744 1.50391 9.83494 1.50391 9.74494 1.50391Z" fill="white"/>
</svg>
