<svg width="143" height="143" viewBox="0 0 143 143" fill="none" xmlns="http://www.w3.org/2000/svg">
<g clip-path="url(#clip0_7_730)">
<path d="M65.3261 15.735C61.0889 33.4426 63.3356 52.7607 73.1723 69.7983C83.009 86.8359 98.6156 98.4407 116.069 103.625C117.135 103.91 118.311 103.782 119.362 103.175C120.413 102.568 121.113 101.614 121.398 100.548L125.332 85.8681C125.617 84.8026 125.489 83.6261 124.882 82.5753C124.297 81.562 123.342 80.8622 122.314 80.555C117.826 79.1937 113.549 77.1595 109.608 74.581C108.293 73.6892 106.519 73.5627 105.018 74.4294L93.384 81.1461C88.441 76.7445 84.1445 71.4694 80.6778 65.465C77.2112 59.4605 74.791 53.1021 73.4132 46.6422L85.0468 39.9255C86.5104 39.0805 87.3255 37.4591 87.211 35.874C86.9265 31.1346 87.3624 26.4296 88.3903 21.8833C88.6758 20.8177 88.5094 19.6629 87.9244 18.6496C87.3177 17.5989 86.3632 16.899 85.2977 16.6135L70.6175 12.68C69.552 12.3945 68.3755 12.5233 67.3247 13.13C66.3115 13.715 65.6116 14.6695 65.3261 15.735ZM107.099 83.235C109.918 84.9101 112.897 86.3427 115.917 87.501L114.22 93.8348C109.434 92.0448 104.887 89.7162 100.698 86.8808L107.078 83.1974L107.099 83.235ZM79.1761 23.9506C78.6532 27.2048 78.4203 30.4415 78.4618 33.72L72.0821 37.4033C71.7426 32.3954 71.9994 27.2935 72.8423 22.2535L79.1761 23.9506ZM31.7847 47.8595L29.5483 56.2059L50.584 61.8742L52.8204 53.5277C52.8204 53.5277 32.1356 48.2073 31.7847 47.8595ZM37.8112 95.2177L33.4779 87.7122L52.2417 76.8789L56.5751 84.3844L37.8112 95.2177ZM77.0871 95.5588L68.7406 93.3224L63.0724 114.358L71.478 116.61C71.3523 116.133 77.0871 95.5588 77.0871 95.5588Z" fill="#374451"/>
</g>
<defs>
<clipPath id="clip0_7_730">
<rect width="104" height="104" fill="white" transform="translate(52 142.067) rotate(-120)"/>
</clipPath>
</defs>
</svg>
