<svg width="0" height="0" class="hidden">
  <symbol fill="none" xmlns="http://www.w3.org/2000/svg" id="service-protection" viewBox="0 0 221 205">
    <path d="M161.986 32.7466C161.56 32.7466 161.134 32.6616 160.732 32.4899L140.766 23.9942C139.584 23.4906 138.815 22.3297 138.815 21.0462V13.1883C138.815 5.91734 144.731 0 152.002 0C159.275 0 165.19 5.91567 165.19 13.1883V29.5419C165.19 30.6178 164.651 31.6217 163.753 32.2152C163.22 32.5668 162.605 32.7466 161.986 32.7466ZM145.225 18.9271L158.781 24.6954V13.188C158.781 9.45033 155.74 6.40928 152.002 6.40928C148.265 6.40928 145.225 9.45046 145.225 13.188L145.225 18.9271Z" fill="currentColor"></path>
    <path d="M12.2457 66.3078C11.5851 66.3078 10.9311 66.1034 10.3801 65.7093C9.5397 65.1076 9.04102 64.1364 9.04102 63.103V43.1376C9.04102 41.8721 9.78657 40.7243 10.9442 40.2092L100.791 0.278356C101.62 -0.0895303 102.565 -0.0895303 103.394 0.278356L193.24 40.2092C194.398 40.7243 195.143 41.8705 195.143 43.1376V63.103C195.143 64.1658 194.617 65.1583 193.739 65.7551C192.861 66.3519 191.744 66.4745 190.756 66.0821L166.872 56.5956L102.123 34.5536L37.2946 57.9626C37.2766 57.9692 37.257 57.9757 37.239 57.9823L13.2792 66.1377C12.9424 66.2522 12.5941 66.3077 12.2475 66.3077L12.2457 66.3078ZM15.4503 45.2205V58.6278L35.1429 51.924L101.001 28.1453C101.686 27.8984 102.433 27.8919 103.122 28.1257L169.009 50.5553C169.06 50.5733 169.11 50.5913 169.159 50.6109L188.731 58.3837V45.2218L102.091 6.71319L15.4503 45.2205Z" fill="currentColor"></path>
    <path d="M105.474 157.489H53.5631C51.7939 157.489 50.3584 156.054 50.3584 154.285V111.059C50.3584 94.9798 63.4387 81.8994 79.5178 81.8994C95.5968 81.8994 108.677 94.9798 108.677 111.059V154.285C108.679 156.054 107.243 157.489 105.474 157.489ZM56.7693 151.08H102.272V111.059C102.272 98.5151 92.0662 88.3091 79.522 88.3091C66.9779 88.3091 56.7718 98.5151 56.7718 111.059L56.7693 151.08Z" fill="currentColor"></path>
    <path d="M145.126 74.5744H58.1422C56.373 74.5744 54.9375 73.1388 54.9375 71.3697C54.9375 69.6006 56.3731 68.165 58.1422 68.165H145.126C146.895 68.165 148.33 69.6006 148.33 71.3697C148.33 73.1388 146.895 74.5744 145.126 74.5744Z" fill="currentColor"></path>
    <path d="M117.655 60.841H85.608C83.8388 60.841 82.4033 59.4054 82.4033 57.6363C82.4033 55.8672 83.8389 54.4316 85.608 54.4316H117.655C119.424 54.4316 120.859 55.8672 120.859 57.6363C120.859 59.4054 119.424 60.841 117.655 60.841Z" fill="currentColor"></path>
    <path d="M21.5172 171.223H3.20467C1.43553 171.223 0 169.787 0 168.018C0 166.249 1.43557 164.813 3.20467 164.813H21.5172C23.2863 164.813 24.7218 166.249 24.7218 168.018C24.7218 169.787 23.2863 171.223 21.5172 171.223Z" fill="currentColor"></path>
    <path d="M141.618 157.489H36.2047C34.4355 157.489 33 156.054 33 154.284V54.949C33 53.5985 33.8469 52.3934 35.1158 51.934L101.003 28.1458C101.688 27.8989 102.435 27.8923 103.124 28.1262L169.011 50.5557C170.309 50.9972 171.182 52.2169 171.182 53.5887V90.3774C171.182 91.6544 170.425 92.8087 169.255 93.3172C162.255 96.3584 154.781 97.9001 147.038 97.9001C144.472 97.9001 141.843 97.7301 139.188 97.3949C139.186 99.1624 139.183 100.871 139.181 102.522C139.176 105.67 139.171 108.616 139.175 111.378C139.189 127.038 139.464 136.255 140.932 143.168C141.698 146.773 142.808 149.814 144.422 152.736C144.969 153.728 144.953 154.938 144.377 155.914C143.802 156.891 142.752 157.491 141.617 157.491L141.618 157.489ZM39.4109 151.08H136.591C135.796 149.023 135.165 146.86 134.663 144.497C133.069 136.986 132.781 127.834 132.765 111.381C132.761 108.614 132.766 105.663 132.771 102.511C132.776 99.7216 132.779 96.7736 132.779 93.6523C132.779 92.7007 133.203 91.7982 133.934 91.19C134.665 90.5817 135.629 90.3283 136.564 90.5016C140.124 91.1573 143.648 91.4908 147.037 91.4908C153.188 91.4908 159.145 90.3937 164.772 88.2289V55.8846L102.121 34.5572L39.4061 57.201L39.4109 151.08Z" fill="currentColor"></path>
    <path d="M152.413 171.223H21.5128C19.7436 171.223 18.3081 169.787 18.3081 168.018V154.284C18.3081 152.515 19.7437 151.079 21.5128 151.079H141.613C142.781 151.079 143.855 151.713 144.419 152.735C144.63 153.118 144.848 153.497 145.076 153.877C147.109 157.25 149.91 160.708 154.738 165.816C155.618 166.746 155.86 168.11 155.353 169.285C154.846 170.461 153.69 171.223 152.41 171.223L152.413 171.223ZM24.719 164.813H145.196C142.893 162.107 141.187 159.792 139.773 157.488H24.7161L24.719 164.813Z" fill="currentColor"></path>
    <path d="M187.125 185.42H166.299C165.438 185.42 164.614 185.074 164.01 184.459C162.746 183.171 161.54 181.944 160.381 180.767L158.768 179.132C149.565 169.806 143.484 163.645 139.591 157.188C137.238 153.287 135.672 149.253 134.662 144.497C133.067 136.987 132.78 127.834 132.763 111.383C132.76 108.616 132.765 105.667 132.77 102.513C132.775 99.7232 132.778 96.7752 132.778 93.6522C132.778 92.7007 133.201 91.7981 133.932 91.1899C134.663 90.5817 135.628 90.3282 136.563 90.5015C140.126 91.1588 143.653 91.4907 147.045 91.4907C157.001 91.4907 166.386 88.6147 174.942 82.9427C176.128 82.1562 177.689 82.2461 178.778 83.1618C182.307 86.1327 186.545 88.3236 191.375 89.671C195.438 90.8041 200.047 91.3796 205.075 91.3796C208.722 91.3796 212.688 91.0771 216.858 90.482C217.779 90.3512 218.709 90.6242 219.41 91.2341C220.112 91.8423 220.516 92.7269 220.516 93.6556C220.516 97.9066 220.526 101.831 220.537 105.466C220.589 124.488 220.622 135.969 218.859 144.484C216.33 156.706 210.153 163.067 196.619 177.005C195.468 178.191 194.26 179.437 192.99 180.748C191.855 181.922 190.674 183.147 189.44 184.435C188.835 185.063 188 185.421 187.125 185.421L187.125 185.42ZM167.645 179.011H185.758C186.66 178.073 187.534 177.167 188.381 176.289C189.653 174.973 190.866 173.725 192.019 172.537C205.416 158.738 210.429 153.576 212.581 143.181C214.208 135.32 214.177 124.089 214.124 105.48C214.118 102.898 214.11 100.169 214.106 97.282C210.957 97.6188 207.931 97.7872 205.071 97.7872C199.461 97.7872 194.273 97.1332 189.649 95.8431C184.747 94.4763 180.339 92.3572 176.515 89.5353C167.424 95.0864 157.521 97.8983 147.045 97.8983C144.476 97.8983 141.845 97.7283 139.185 97.3915C139.184 99.159 139.181 100.868 139.179 102.521C139.174 105.668 139.169 108.613 139.172 111.374C139.187 127.036 139.462 136.252 140.93 143.164C141.798 147.257 143.078 150.561 145.078 153.877C148.579 159.683 154.447 165.628 163.329 174.629L164.942 176.266C165.816 177.152 166.716 178.065 167.645 179.011Z" fill="currentColor"></path>
    <path d="M122.234 189.535H26.0924C24.3232 189.535 22.8877 188.1 22.8877 186.331C22.8877 184.562 24.3233 183.126 26.0924 183.126H122.234C124.003 183.126 125.439 184.562 125.439 186.331C125.439 188.1 124.003 189.535 122.234 189.535Z" fill="currentColor"></path>
    <path d="M154.28 203.269H113.076C111.307 203.269 109.872 201.833 109.872 200.064C109.872 198.295 111.307 196.859 113.076 196.859H154.28C156.049 196.859 157.484 198.295 157.484 200.064C157.484 201.833 156.049 203.269 154.28 203.269Z" fill="currentColor"></path>
    <path d="M189.754 157.489C188.711 157.489 187.687 156.981 187.072 156.042C186.101 154.563 186.513 152.576 187.993 151.605C201.057 143.027 195.834 118.598 195.779 118.353C195.398 116.626 196.487 114.914 198.214 114.532C199.942 114.146 201.651 115.235 202.035 116.961C202.298 118.14 208.276 145.954 191.51 156.963C190.967 157.319 190.357 157.489 189.754 157.489Z" fill="currentColor"></path>
  </symbol>
</svg>