<svg width="0" height="0" class="hidden">
  <symbol fill="none" xmlns="http://www.w3.org/2000/svg" id="service-home" 
  viewBox="0 0 221 204">
    <path d="M208.338 73.161H149.101C148.043 73.161 147.056 72.6241 146.48 71.7366L114.676 22.6641C114.054 21.7033 114.007 20.4797 114.554 19.4743C115.1 18.469 116.153 17.8428 117.297 17.8428H181.572C182.714 17.8428 183.766 18.4673 184.314 19.4695L211.081 68.542C211.609 69.5092 211.588 70.6834 211.026 71.6314C210.461 72.5794 209.442 73.161 208.339 73.161H208.338ZM150.798 66.9155H203.081L179.72 24.0877H123.045L150.798 66.9155Z" fill="currentColor"></path>
    <path d="M62.3609 73.161H3.12397C2.02142 73.161 1.00171 72.5794 0.437686 71.6314C-0.124745 70.6834 -0.147059 69.5092 0.381917 68.542L27.1493 19.4695C27.6974 18.4674 28.749 17.8428 29.8914 17.8428H94.1698C95.3138 17.8428 96.367 18.469 96.9135 19.4743C97.46 20.4797 97.4122 21.7033 96.7908 22.6641L64.9869 71.7366C64.4101 72.6241 63.4239 73.161 62.3643 73.161H62.3609ZM8.38159 66.9155H60.6641L88.4194 24.0877H31.744L8.38159 66.9155Z" fill="currentColor"></path>
    <path d="M145.883 180.231H65.579C64.6772 180.231 63.82 179.84 63.2273 179.162C62.6346 178.483 62.3638 177.58 62.4849 176.686L75.8684 78.5407C76.101 76.8311 77.6736 75.6362 79.3848 75.8688C81.0944 76.1014 82.2893 77.6756 82.0567 79.3852L69.1574 173.986H142.303L129.404 79.3852C129.171 77.6756 130.368 76.1014 132.076 75.8688C133.781 75.6362 135.358 76.8327 135.592 78.5407L148.976 176.686C149.097 177.58 148.828 178.481 148.235 179.162C147.641 179.84 146.783 180.231 145.882 180.231H145.883Z" fill="currentColor"></path>
    <path d="M149.506 92.6824H149.504C143.865 92.6824 138.542 89.9499 135.262 85.3723L105.733 44.1719L76.2041 85.3723C72.9235 89.95 67.5985 92.6824 61.9616 92.6824C57.545 92.6824 53.3242 91.027 50.0771 88.0187C48.9633 86.9862 48.7514 85.3037 49.5784 84.0291L103.113 1.42441C103.687 0.536939 104.675 0 105.732 0C106.79 0 107.778 0.536939 108.353 1.42441L161.888 84.0291C162.715 85.3037 162.503 86.9862 161.39 88.0187C158.142 91.0252 153.922 92.6824 149.505 92.6824H149.506ZM105.732 35.6888C106.739 35.6888 107.683 36.1747 108.27 36.9921L140.336 81.7329C142.478 84.7203 145.819 86.4345 149.503 86.4345H149.504C151.469 86.4345 153.374 85.9231 155.054 84.9671L105.732 8.86413L56.4109 84.9671C58.0902 85.9231 59.9958 86.4345 61.9602 86.4345C65.6438 86.4345 68.9851 84.7202 71.1265 81.7329L103.193 36.9921C103.781 36.1731 104.726 35.6872 105.733 35.6872L105.732 35.6888Z" fill="curentColor"></path>
    <path d="M119.113 180.23H92.346C90.622 180.23 89.2231 178.832 89.2231 177.108V136.956C89.2231 127.854 96.627 120.45 105.73 120.45C114.833 120.45 122.236 127.854 122.236 136.956V177.108C122.236 178.832 120.837 180.23 119.113 180.23ZM95.4687 173.985H115.99V136.957C115.99 131.299 111.387 126.696 105.729 126.696C100.072 126.696 95.4687 131.299 95.4687 136.957V173.985Z" fill="currentColor"></path>
    <path d="M114.656 108.851H96.8108C95.0869 108.851 93.688 107.452 93.688 105.728V96.8055C93.688 90.1631 99.0908 84.7603 105.733 84.7603C112.376 84.7603 117.778 90.1631 117.778 96.8055V105.728C117.778 107.452 116.38 108.851 114.656 108.851ZM99.9336 102.605H111.533V96.8055C111.533 93.6078 108.931 91.0059 105.733 91.0059C102.535 91.0059 99.9336 93.6077 99.9336 96.8055V102.605Z" fill="currentColor"></path>
    <path d="M194.956 162.39C193.232 162.39 191.833 160.991 191.833 159.267V73.1667H154.845L161.886 84.0315C162.712 85.3061 162.501 86.9886 161.387 88.0211C157.702 91.4323 152.726 93.1004 147.726 92.5938C142.729 92.0872 138.185 89.4566 135.26 85.3747L126.512 73.1667H84.9523L76.2019 85.3747C73.2766 89.4568 68.7328 92.0873 63.7362 92.5938C58.7396 93.1005 53.7606 91.4339 50.0754 88.0211C48.9616 86.9886 48.7497 85.3061 49.5766 84.0315L56.6175 73.1667H19.629V159.267C19.629 160.991 18.2301 162.39 16.5061 162.39C14.7822 162.39 13.3833 160.991 13.3833 159.267V70.0423C13.3833 68.3183 14.7822 66.9194 16.5061 66.9194H62.3604C63.5044 66.9194 64.5576 67.5456 65.1041 68.551C65.6506 69.5563 65.6028 70.78 64.9814 71.7407L56.4093 84.9684C58.4233 86.1108 60.7607 86.6175 63.106 86.3801C66.3197 86.055 69.2434 84.3614 71.125 81.7355L80.809 68.2243C81.3953 67.4054 82.3401 66.921 83.3471 66.921H128.112C129.119 66.921 130.064 67.407 130.65 68.2243L140.334 81.7355C142.216 84.3612 145.14 86.055 148.353 86.3801C150.697 86.6175 153.036 86.1108 155.05 84.9684L146.478 71.7407C145.855 70.78 145.809 69.5563 146.355 68.551C146.902 67.5456 147.955 66.9194 149.099 66.9194H194.953C196.677 66.9194 198.076 68.3184 198.076 70.0423V159.267C198.076 160.991 196.677 162.39 194.953 162.39H194.956Z" fill="currentColor"></path>
    <path d="M203.876 180.23H141.421C139.697 180.23 138.298 178.831 138.298 177.108C138.298 175.384 139.697 173.985 141.421 173.985H200.756V162.385H145.883C144.159 162.385 142.761 160.986 142.761 159.262C142.761 157.539 144.16 156.14 145.883 156.14H203.88C205.604 156.14 207.003 157.539 207.003 159.262V177.107C207.003 178.831 205.604 180.23 203.88 180.23L203.876 180.23Z" fill="currentColor"></path>
    <path d="M65.5793 180.231H7.58231C5.85835 180.231 4.45947 178.832 4.45947 177.108V159.263C4.45947 157.539 5.85839 156.14 7.58231 156.14H65.5793C67.3033 156.14 68.7021 157.539 68.7021 159.263C68.7021 160.987 67.3032 162.386 65.5793 162.386H10.7067V173.985H65.5793C67.3033 173.985 68.7021 175.384 68.7021 177.108C68.7021 178.832 67.3032 180.231 65.5793 180.231Z" fill="currentColor"></path>
    <path d="M181.573 140.083H159.267C157.543 140.083 156.144 138.684 156.144 136.96V101.27C156.144 99.5463 157.543 98.1475 159.267 98.1475H181.573C183.297 98.1475 184.696 99.5464 184.696 101.27V136.96C184.696 138.684 183.297 140.083 181.573 140.083ZM162.39 133.837H178.45V104.393H162.39V133.837Z" fill="currentColor"></path>
    <path d="M52.1963 140.083H29.8899C28.166 140.083 26.7671 138.684 26.7671 136.96V101.27C26.7671 99.5463 28.166 98.1475 29.8899 98.1475H52.1963C53.9202 98.1475 55.3191 99.5464 55.3191 101.27V136.96C55.3191 138.684 53.9202 140.083 52.1963 140.083ZM33.0131 133.837H49.0735V104.393H33.0131V133.837Z" fill="currentColor"></path>
    <path d="M186.035 41.9332H154.807C153.083 41.9332 151.684 40.5343 151.684 38.8103C151.684 37.0864 153.083 35.6875 154.807 35.6875H186.035C187.759 35.6875 189.158 37.0864 189.158 38.8103C189.158 40.5343 187.759 41.9332 186.035 41.9332Z" fill="currentColor"></path>
    <path d="M61.1169 41.9332H20.9656C19.2417 41.9332 17.8428 40.5343 17.8428 38.8103C17.8428 37.0864 19.2417 35.6875 20.9656 35.6875H61.1169C62.8408 35.6875 64.2397 37.0864 64.2397 38.8103C64.2397 40.5343 62.8408 41.9332 61.1169 41.9332Z" fill="currentColor"></path>
    <path d="M70.0417 55.3204H38.8133C37.0893 55.3204 35.6904 53.9215 35.6904 52.1975C35.6904 50.4736 37.0894 49.0747 38.8133 49.0747H70.0417C71.7656 49.0747 73.1645 50.4736 73.1645 52.1975C73.1645 53.9215 71.7656 55.3204 70.0417 55.3204Z" fill="currentColor"></path>
    <path d="M168.187 59.7779H141.419C139.695 59.7779 138.296 58.379 138.296 56.6551C138.296 54.9311 139.695 53.5322 141.419 53.5322H168.187C169.911 53.5322 171.309 54.9311 171.309 56.6551C171.309 58.379 169.911 59.7779 168.187 59.7779Z" fill="currentColor"></path>
    <path d="M78.9664 193.617H7.58671C5.86274 193.617 4.46387 192.218 4.46387 190.494C4.46387 188.771 5.86278 187.372 7.58671 187.372H78.9664C80.6903 187.372 82.0892 188.771 82.0892 190.494C82.0892 192.218 80.6903 193.617 78.9664 193.617Z" fill="currentColor"></path>
    <path d="M150.346 207H105.731C104.007 207 102.608 205.601 102.608 203.877C102.608 202.153 104.007 200.754 105.731 200.754H150.346C152.07 200.754 153.468 202.153 153.468 203.877C153.468 205.601 152.069 207 150.346 207Z" fill="currentColor"></path>
    <path d="M203.876 193.617H159.262C157.538 193.617 156.139 192.218 156.139 190.494C156.139 188.771 157.538 187.372 159.262 187.372H203.876C205.6 187.372 206.999 188.771 206.999 190.494C206.999 192.218 205.6 193.617 203.876 193.617Z" fill="currentColor"></path>
    <path d="M114.656 193.617H96.8108C95.0869 193.617 93.688 192.218 93.688 190.494C93.688 188.771 95.0869 187.372 96.8108 187.372H114.656C116.38 187.372 117.779 188.771 117.779 190.494C117.779 192.218 116.38 193.617 114.656 193.617Z" fill="currentColor"></path>
  </symbol>
</svg>