<svg width="0" height="0" class="hidden">
  <symbol fill="none" xmlns="http://www.w3.org/2000/svg" id="service-document"  viewBox="0 0 221 204">
    <path d="M46.3917 193.324H45.8099C44.2326 193.324 42.941 192.07 42.8948 190.494C42.8487 188.918 44.0629 187.589 45.6387 187.497L45.7563 187.488C45.8411 187.482 45.9259 187.479 46.0108 187.482L46.231 187.488C46.2845 187.49 46.3366 187.493 46.3917 187.493C48.0018 187.493 49.3082 188.799 49.3082 190.409C49.3082 192.019 48.0032 193.324 46.3917 193.324Z" fill="currentColor"></path>
    <path d="M173.838 193.325H45.9804C44.3703 193.325 43.0638 192.018 43.0638 190.408C43.0638 188.798 44.3703 187.492 45.9804 187.492H173.838C179.549 187.492 184.195 183.184 184.195 177.888C184.195 172.436 179.943 168.326 174.307 168.326H45.1465C43.5364 168.326 42.23 167.019 42.23 165.409C42.23 163.799 43.5365 162.493 45.1465 162.493H174.307C183.122 162.493 190.028 169.254 190.028 177.888C190.028 186.399 182.765 193.324 173.838 193.324L173.838 193.325Z" fill="currentColor"></path>
    <path d="M45.9533 193.313H45.8953C39.2662 193.181 33.1385 190.794 28.6416 186.593C23.969 182.227 21.395 176.184 21.395 169.576V2.91652C21.395 1.30646 22.7015 0 24.3115 0H174.305C175.915 0 177.222 1.3065 177.222 2.91652V165.409C177.222 167.019 175.915 168.325 174.305 168.325H57.3844C59.7147 170.983 61.1208 174.326 61.1208 177.887C61.1208 185.976 54.5421 192.748 46.1455 193.306C46.0815 193.311 46.0175 193.312 45.952 193.312L45.9533 193.313ZM27.228 5.83182V169.573C27.228 179.689 35.0654 187.2 45.8821 187.476C51.1676 187.065 55.2893 182.876 55.2893 177.885C55.2893 173.014 50.5676 168.633 44.9804 168.319C43.4046 168.23 42.1844 166.904 42.229 165.325C42.2737 163.746 43.5653 162.49 45.1441 162.49H171.39V5.83038L27.228 5.83182Z" fill="currentColor"></path>
    <path d="M91.2925 42.9501H91.2835H40.1505C38.9125 42.9501 37.8084 42.1674 37.3991 40.9993C36.9899 39.8312 37.3619 38.5306 38.3291 37.7569L63.8964 17.304C64.9619 16.4514 66.4752 16.4514 67.5406 17.304L92.9742 37.6513C93.7226 38.1796 94.2107 39.0501 94.2107 40.0352C94.2107 41.6452 92.9042 42.9502 91.2942 42.9502L91.2925 42.9501ZM48.4638 37.1172H82.9683L65.7161 23.3159L48.4638 37.1172Z" fill="currentColor"></path>
    <path d="M86.169 78.7468H72.9596C71.3496 78.7468 70.0431 77.4403 70.0431 75.8303V64.112C70.0431 61.8427 68.198 59.9975 65.9286 59.9975C63.6594 59.9975 61.8142 61.8426 61.8142 64.112L61.8127 75.8303C61.8127 77.4404 60.5062 78.7468 58.8961 78.7468H45.2598C43.6497 78.7468 42.3433 77.4403 42.3433 75.8303V40.0357C42.3433 38.4256 43.6498 37.1191 45.2598 37.1191H86.1685C87.7786 37.1191 89.085 38.4256 89.085 40.0357L89.0865 75.8303C89.0865 77.4404 87.78 78.7468 86.17 78.7468H86.169ZM75.875 72.9139H83.251V42.9526H48.1767L48.1782 72.9139H55.9813V64.1124C55.9813 58.6277 60.444 54.165 65.9287 54.165C71.4134 54.165 75.8761 58.6277 75.8761 64.1124L75.875 72.9139Z" fill="currentColor"></path>
    <path d="M16.2864 189.158H3.78713C2.17706 189.158 0.870605 187.851 0.870605 186.241V15.4141C0.870605 13.804 2.1771 12.4976 3.78713 12.4976C5.39715 12.4976 6.70365 13.8041 6.70365 15.4141V183.323H16.2865C17.8965 183.323 19.203 184.63 19.203 186.24C19.203 187.85 17.8965 189.156 16.2865 189.156L16.2864 189.158Z" fill="currentColor"></path>
    <path d="M157.945 30.833H124.613C123.003 30.833 121.696 29.5265 121.696 27.9165C121.696 26.3065 123.003 25 124.613 25H157.945C159.555 25 160.861 26.3065 160.861 27.9165C160.861 29.5265 159.555 30.833 157.945 30.833Z" fill="currentColor"></path>
    <path d="M157.945 43.3311H124.613C123.003 43.3311 121.696 42.0246 121.696 40.4146C121.696 38.8045 123.003 37.498 124.613 37.498H157.945C159.555 37.498 160.861 38.8045 160.861 40.4146C160.861 42.0246 159.555 43.3311 157.945 43.3311Z" fill="currentColor"></path>
    <path d="M157.945 55.8296H124.613C123.003 55.8296 121.696 54.5231 121.696 52.9131C121.696 51.3031 123.003 49.9966 124.613 49.9966H157.945C159.555 49.9966 160.861 51.3031 160.861 52.9131C160.861 54.5231 159.555 55.8296 157.945 55.8296Z" fill="currentColor"></path>
    <path d="M157.945 68.3282H124.613C123.003 68.3282 121.696 67.0217 121.696 65.4116C121.696 63.8016 123.003 62.4951 124.613 62.4951H157.945C159.555 62.4951 160.861 63.8016 160.861 65.4116C160.861 67.0217 159.555 68.3282 157.945 68.3282Z" fill="currentColor"></path>
    <path d="M157.945 80.8306H124.613C123.003 80.8306 121.696 79.5241 121.696 77.9141C121.696 76.3041 123.003 74.9976 124.613 74.9976H157.945C159.555 74.9976 160.861 76.3041 160.861 77.9141C160.861 79.5241 159.555 80.8306 157.945 80.8306Z" fill="currentColor"></path>
    <path d="M157.945 93.3291H124.613C123.003 93.3291 121.696 92.0226 121.696 90.4126C121.696 88.8026 123.003 87.4961 124.613 87.4961H157.945C159.555 87.4961 160.861 88.8026 160.861 90.4126C160.861 92.0226 159.555 93.3291 157.945 93.3291Z" fill="currentColor"></path>
    <path d="M157.945 105.827H124.613C123.003 105.827 121.696 104.521 121.696 102.911C121.696 101.301 123.003 99.9941 124.613 99.9941H157.945C159.555 99.9941 160.861 101.301 160.861 102.911C160.861 104.521 159.555 105.827 157.945 105.827Z" fill="currentColor"></path>
    <path d="M157.945 118.33H124.613C123.003 118.33 121.696 117.024 121.696 115.414C121.696 113.804 123.003 112.497 124.613 112.497H157.945C159.555 112.497 160.861 113.804 160.861 115.414C160.861 117.024 159.555 118.33 157.945 118.33Z" fill="currentColor"></path>
    <path d="M157.945 130.829H124.613C123.003 130.829 121.696 129.522 121.696 127.912C121.696 126.302 123.003 124.996 124.613 124.996H157.945C159.555 124.996 160.861 126.302 160.861 127.912C160.861 129.522 159.555 130.829 157.945 130.829Z" fill="currentColor"></path>
    <path d="M157.945 143.327H124.613C123.003 143.327 121.696 142.02 121.696 140.41C121.696 138.8 123.003 137.494 124.613 137.494H157.945C159.555 137.494 160.861 138.8 160.861 140.41C160.861 142.02 159.555 143.327 157.945 143.327Z" fill="currentColor"></path>
    <path d="M112.115 143.327H41.2837C39.6736 143.327 38.3672 142.02 38.3672 140.41C38.3672 138.8 39.6737 137.494 41.2837 137.494H112.115C113.725 137.494 115.031 138.8 115.031 140.41C115.031 142.02 113.725 143.327 112.115 143.327Z" fill="currentColor"></path>
    <path d="M112.115 130.829H41.2837C39.6736 130.829 38.3672 129.522 38.3672 127.912C38.3672 126.302 39.6737 124.996 41.2837 124.996H112.115C113.725 124.996 115.031 126.302 115.031 127.912C115.031 129.522 113.725 130.829 112.115 130.829Z" fill="currentColor"></path>
    <path d="M112.115 118.33H41.2837C39.6736 118.33 38.3672 117.024 38.3672 115.414C38.3672 113.804 39.6737 112.497 41.2837 112.497H112.115C113.725 112.497 115.031 113.804 115.031 115.414C115.031 117.024 113.725 118.33 112.115 118.33Z" fill="currentColor"></path>
    <path d="M112.115 105.827H41.2837C39.6736 105.827 38.3672 104.521 38.3672 102.911C38.3672 101.301 39.6737 99.9941 41.2837 99.9941H112.115C113.725 99.9941 115.031 101.301 115.031 102.911C115.031 104.521 113.725 105.827 112.115 105.827Z" fill="currentColor"></path>
    <path d="M112.115 93.3291H41.2837C39.6736 93.3291 38.3672 92.0226 38.3672 90.4126C38.3672 88.8026 39.6737 87.4961 41.2837 87.4961H112.115C113.725 87.4961 115.031 88.8026 115.031 90.4126C115.031 92.0226 113.725 93.3291 112.115 93.3291Z" fill="currentColor"></path>
  </symbol>
</svg>