<svg width="18" height="18" viewBox="0 0 18 18" fill="none" xmlns="http://www.w3.org/2000/svg">
<g clip-path="url(#clip0_45_54)">
<path d="M5.07 4.0051L3.72 2.6626L2.6625 3.7201L4.005 5.0626L5.07 4.0051ZM0.75 8.2501H3V9.75009H0.75V8.2501ZM8.25 0.787598H9.75V3.0001H8.25V0.787598ZM14.28 2.65885L15.336 3.7141L13.9935 5.0566L12.9382 4.0006L14.28 2.65885ZM12.93 13.9951L14.2725 15.3451L15.33 14.2876L13.98 12.9451L12.93 13.9951ZM15 8.2501H17.25V9.75009H15V8.2501ZM9 4.5001C6.5175 4.5001 4.5 6.5176 4.5 9.00009C4.5 11.4826 6.5175 13.5001 9 13.5001C11.4825 13.5001 13.5 11.4826 13.5 9.00009C13.5 6.5176 11.4825 4.5001 9 4.5001ZM9 12.0001C7.3425 12.0001 6 10.6576 6 9.00009C6 7.3426 7.3425 6.0001 9 6.0001C10.6575 6.0001 12 7.3426 12 9.00009C12 10.6576 10.6575 12.0001 9 12.0001ZM8.25 15.0001H9.75V17.2126H8.25V15.0001ZM2.6625 14.2801L3.72 15.3376L5.0625 13.9876L4.005 12.9301L2.6625 14.2801Z" fill="#F8F9F9"/>
</g>
<defs>
<clipPath id="clip0_45_54">
<rect width="18" height="18" fill="white"/>
</clipPath>
</defs>
</svg>
