<svg width="19" height="18" viewBox="0 0 19 18" fill="none" xmlns="http://www.w3.org/2000/svg">
<path d="M5.57 4.00461L4.22 2.66211L3.1625 3.71961L4.505 5.06211L5.57 4.00461ZM1.25 8.24961H3.5V9.74961H1.25V8.24961ZM8.75 0.787109H10.25V2.99961H8.75V0.787109ZM14.78 2.65836L15.836 3.71361L14.4935 5.05611L13.4382 4.00011L14.78 2.65836ZM13.43 13.9946L14.7725 15.3446L15.83 14.2871L14.48 12.9446L13.43 13.9946ZM15.5 8.24961H17.75V9.74961H15.5V8.24961ZM9.5 4.49961C7.0175 4.49961 5 6.51711 5 8.99961C5 11.4821 7.0175 13.4996 9.5 13.4996C11.9825 13.4996 14 11.4821 14 8.99961C14 6.51711 11.9825 4.49961 9.5 4.49961ZM9.5 11.9996C7.8425 11.9996 6.5 10.6571 6.5 8.99961C6.5 7.34211 7.8425 5.99961 9.5 5.99961C11.1575 5.99961 12.5 7.34211 12.5 8.99961C12.5 10.6571 11.1575 11.9996 9.5 11.9996ZM8.75 14.9996H10.25V17.2121H8.75V14.9996ZM3.1625 14.2796L4.22 15.3371L5.5625 13.9871L4.505 12.9296L3.1625 14.2796Z" fill="#414B5A"/>
</svg>
